<?xml version="1.0" encoding="utf-8" standalone="no"?>
<!DOCTYPE svg PUBLIC "-//W3C//DTD SVG 1.1//EN"
  "http://www.w3.org/Graphics/SVG/1.1/DTD/svg11.dtd">
<svg xmlns:xlink="http://www.w3.org/1999/xlink" width="518.740157pt" height="411.023622pt" viewBox="0 0 518.740157 411.023622" xmlns="http://www.w3.org/2000/svg" version="1.1">
 <metadata>
  <rdf:RDF xmlns:dc="http://purl.org/dc/elements/1.1/" xmlns:cc="http://creativecommons.org/ns#" xmlns:rdf="http://www.w3.org/1999/02/22-rdf-syntax-ns#">
   <cc:Work>
    <dc:type rdf:resource="http://purl.org/dc/dcmitype/StillImage"/>
    <dc:date>2026-10-10T13:03:39.346313</dc:date>
    <dc:format>image/svg+xml</dc:format>
    <dc:creator>
     <cc:Agent>
      <dc:title>Matplotlib v3.10.6, https://matplotlib.org/</dc:title>
     </cc:Agent>
    </dc:creator>
   </cc:Work>
  </rdf:RDF>
 </metadata>
 <defs>
  <style type="text/css">*{stroke-linejoin: round; stroke-linecap: butt}</style>
 </defs>
 <g id="figure_1">
  <g id="patch_1">
   <path d="M 0 411.023622 
L 518.740157 411.023622 
L 518.740157 0 
L 0 0 
z
" style="fill: #ffffff"/>
  </g>
  <g id="axes_1">
   <g id="patch_2">
    <path d="M 69.448819 65.19685 
L 69.448819 98.206368 
" clip-path="url(#pb904b3d28c)" style="fill: none; stroke: #637a8d; stroke-width: 0.9; stroke-linecap: round"/>
    <path d="M 71.048819 95.006368 
L 69.448819 98.206368 
L 67.848819 95.006368 
z
" clip-path="url(#pb904b3d28c)" style="fill: #637a8d; stroke: #637a8d; stroke-width: 0.9; stroke-linecap: round"/>
   </g>
   <g id="patch_3">
    <path d="M 124.724409 130.393701 
L 140.726053 130.393701 
" clip-path="url(#pb904b3d28c)" style="fill: none; stroke: #637a8d; stroke-width: 0.9; stroke-linecap: round"/>
    <path d="M 137.526053 128.793701 
L 140.726053 130.393701 
L 137.526053 131.993701 
z
" clip-path="url(#pb904b3d28c)" style="fill: #637a8d; stroke: #637a8d; stroke-width: 0.9; stroke-linecap: round"/>
   </g>
   <g id="patch_4">
    <path d="M 238.110236 130.393701 
L 256.946525 130.393701 
" clip-path="url(#pb904b3d28c)" style="fill: none; stroke: #637a8d; stroke-width: 0.9; stroke-linecap: round"/>
    <path d="M 253.746525 128.793701 
L 256.946525 130.393701 
L 253.746525 131.993701 
z
" clip-path="url(#pb904b3d28c)" style="fill: #637a8d; stroke: #637a8d; stroke-width: 0.9; stroke-linecap: round"/>
   </g>
   <g id="patch_5">
    <path d="M 388.346457 130.393701 
L 398.678809 130.393701 
" clip-path="url(#pb904b3d28c)" style="fill: none; stroke: #637a8d; stroke-width: 0.9; stroke-linecap: round"/>
    <path d="M 395.478809 128.793701 
L 398.678809 130.393701 
L 395.478809 131.993701 
z
" clip-path="url(#pb904b3d28c)" style="fill: #637a8d; stroke: #637a8d; stroke-width: 0.9; stroke-linecap: round"/>
   </g>
   <g id="patch_6">
    <path d="M 456.377953 161.574803 
L 456.377953 187.086614 
L 69.448819 187.086614 
L 69.448819 162.804641 
" clip-path="url(#pb904b3d28c)" style="fill: none; stroke: #a46834; stroke-width: 1.1; stroke-linecap: round"/>
    <path d="M 67.848819 166.004641 
L 69.448819 162.804641 
L 71.048819 166.004641 
z
" clip-path="url(#pb904b3d28c)" style="fill: #a46834; stroke: #a46834; stroke-width: 1.1; stroke-linecap: round"/>
   </g>
   <g id="patch_7">
    <path d="M 456.377953 187.086614 
L 456.377953 211.368588 
" clip-path="url(#pb904b3d28c)" style="fill: none; stroke: #a46834; stroke-width: 1.1; stroke-linecap: round"/>
    <path d="M 457.977953 208.168588 
L 456.377953 211.368588 
L 454.777953 208.168588 
z
" clip-path="url(#pb904b3d28c)" style="fill: #a46834; stroke: #a46834; stroke-width: 1.1; stroke-linecap: round"/>
   </g>
   <g id="patch_8">
    <path d="M 456.377953 240.944882 
L 456.377953 267.874016 
L 69.448819 267.874016 
L 69.448819 276.789045 
" clip-path="url(#pb904b3d28c)" style="fill: none; stroke: #637a8d; stroke-width: 0.9; stroke-linecap: round"/>
    <path d="M 71.048819 273.589045 
L 69.448819 276.789045 
L 67.848819 273.589045 
z
" clip-path="url(#pb904b3d28c)" style="fill: #637a8d; stroke: #637a8d; stroke-width: 0.9; stroke-linecap: round"/>
   </g>
   <g id="patch_9">
    <path d="M 124.724409 306.141732 
L 140.726053 306.141732 
" clip-path="url(#pb904b3d28c)" style="fill: none; stroke: #637a8d; stroke-width: 0.9; stroke-linecap: round"/>
    <path d="M 137.526053 304.541732 
L 140.726053 306.141732 
L 137.526053 307.741732 
z
" clip-path="url(#pb904b3d28c)" style="fill: #637a8d; stroke: #637a8d; stroke-width: 0.9; stroke-linecap: round"/>
   </g>
   <g id="patch_10">
    <path d="M 255.11811 306.141732 
L 271.119754 306.141732 
" clip-path="url(#pb904b3d28c)" style="fill: none; stroke: #637a8d; stroke-width: 0.9; stroke-linecap: round"/>
    <path d="M 267.919754 304.541732 
L 271.119754 306.141732 
L 267.919754 307.741732 
z
" clip-path="url(#pb904b3d28c)" style="fill: #637a8d; stroke: #637a8d; stroke-width: 0.9; stroke-linecap: round"/>
   </g>
   <g id="patch_11">
    <path d="M 379.84252 306.141732 
L 395.844163 306.141732 
" clip-path="url(#pb904b3d28c)" style="fill: none; stroke: #637a8d; stroke-width: 0.9; stroke-linecap: round"/>
    <path d="M 392.644163 304.541732 
L 395.844163 306.141732 
L 392.644163 307.741732 
z
" clip-path="url(#pb904b3d28c)" style="fill: #637a8d; stroke: #637a8d; stroke-width: 0.9; stroke-linecap: round"/>
   </g>
   <g id="patch_12">
    <path d="M 249.448819 377.007874 
L 271.119754 377.007874 
" clip-path="url(#pb904b3d28c)" style="fill: none; stroke-dasharray: 2.7,1.8; stroke-dashoffset: 0; stroke: #697984; stroke-width: 0.9; stroke-linecap: round"/>
    <path d="M 267.919754 375.407874 
L 271.119754 377.007874 
L 267.919754 378.607874 
z
" clip-path="url(#pb904b3d28c)" style="fill: #697984; stroke-dasharray: 2.7,1.8; stroke-dashoffset: 0; stroke: #697984; stroke-width: 0.9; stroke-linecap: round"/>
   </g>
   <g id="patch_13">
    <path d="M 131.811024 354.330709 
L 131.811024 345.826772 
L 450.708661 345.826772 
L 450.708661 335.49442 
" clip-path="url(#pb904b3d28c)" style="fill: none; stroke-dasharray: 2.7,1.8; stroke-dashoffset: 0; stroke: #697984; stroke-width: 0.9; stroke-linecap: round"/>
    <path d="M 449.108661 338.69442 
L 450.708661 335.49442 
L 452.308661 338.69442 
z
" clip-path="url(#pb904b3d28c)" style="fill: #697984; stroke-dasharray: 2.7,1.8; stroke-dashoffset: 0; stroke: #697984; stroke-width: 0.9; stroke-linecap: round"/>
   </g>
   <g id="patch_14">
    <path d="M 17.716535 65.19685 
L 501.023622 65.19685 
Q 504.566929 65.19685 504.566929 61.653543 
L 504.566929 34.724409 
Q 504.566929 31.181102 501.023622 31.181102 
L 17.716535 31.181102 
Q 14.173228 31.181102 14.173228 34.724409 
L 14.173228 61.653543 
Q 14.173228 65.19685 17.716535 65.19685 
z
" clip-path="url(#pb904b3d28c)" style="fill: #edf3f8; stroke: #315d83; stroke-width: 0.85; stroke-linejoin: miter"/>
   </g>
   <g id="patch_15">
    <path d="M 17.716535 161.574803 
L 121.181102 161.574803 
Q 124.724409 161.574803 124.724409 158.031496 
L 124.724409 102.755906 
Q 124.724409 99.212598 121.181102 99.212598 
L 17.716535 99.212598 
Q 14.173228 99.212598 14.173228 102.755906 
L 14.173228 158.031496 
Q 14.173228 161.574803 17.716535 161.574803 
z
" clip-path="url(#pb904b3d28c)" style="fill: #fbf0e6; stroke: #a46834; stroke-width: 0.85; stroke-linejoin: miter"/>
   </g>
   <g id="patch_16">
    <path d="M 145.275591 161.574803 
L 234.566929 161.574803 
Q 238.110236 161.574803 238.110236 158.031496 
L 238.110236 102.755906 
Q 238.110236 99.212598 234.566929 99.212598 
L 145.275591 99.212598 
Q 141.732283 99.212598 141.732283 102.755906 
L 141.732283 158.031496 
Q 141.732283 161.574803 145.275591 161.574803 
z
" clip-path="url(#pb904b3d28c)" style="fill: #edf3f8; stroke: #315d83; stroke-width: 0.85; stroke-linejoin: miter"/>
   </g>
   <g id="patch_17">
    <path d="M 261.496063 161.574803 
L 384.80315 161.574803 
Q 388.346457 161.574803 388.346457 158.031496 
L 388.346457 102.755906 
Q 388.346457 99.212598 384.80315 99.212598 
L 261.496063 99.212598 
Q 257.952756 99.212598 257.952756 102.755906 
L 257.952756 158.031496 
Q 257.952756 161.574803 261.496063 161.574803 
z
" clip-path="url(#pb904b3d28c)" style="fill: #edf3f8; stroke: #315d83; stroke-width: 0.85; stroke-linejoin: miter"/>
   </g>
   <g id="patch_18">
    <path d="M 403.228346 161.574803 
L 501.023622 161.574803 
Q 504.566929 161.574803 504.566929 158.031496 
L 504.566929 102.755906 
Q 504.566929 99.212598 501.023622 99.212598 
L 403.228346 99.212598 
Q 399.685039 99.212598 399.685039 102.755906 
L 399.685039 158.031496 
Q 399.685039 161.574803 403.228346 161.574803 
z
" clip-path="url(#pb904b3d28c)" style="fill: #fbf0e6; stroke: #a46834; stroke-width: 0.85; stroke-linejoin: miter"/>
   </g>
   <g id="patch_19">
    <path d="M 17.716535 240.944882 
L 501.023622 240.944882 
Q 504.566929 240.944882 504.566929 237.401575 
L 504.566929 216.141732 
Q 504.566929 212.598425 501.023622 212.598425 
L 17.716535 212.598425 
Q 14.173228 212.598425 14.173228 216.141732 
L 14.173228 237.401575 
Q 14.173228 240.944882 17.716535 240.944882 
z
" clip-path="url(#pb904b3d28c)" style="fill: #fbf0e6; stroke: #a46834; stroke-width: 0.85; stroke-linejoin: miter"/>
   </g>
   <g id="patch_20">
    <path d="M 17.716535 334.488189 
L 121.181102 334.488189 
Q 124.724409 334.488189 124.724409 330.944882 
L 124.724409 281.338583 
Q 124.724409 277.795276 121.181102 277.795276 
L 17.716535 277.795276 
Q 14.173228 277.795276 14.173228 281.338583 
L 14.173228 330.944882 
Q 14.173228 334.488189 17.716535 334.488189 
z
" clip-path="url(#pb904b3d28c)" style="fill: #edf3f8; stroke: #315d83; stroke-width: 0.85; stroke-linejoin: miter"/>
   </g>
   <g id="patch_21">
    <path d="M 145.275591 334.488189 
L 251.574803 334.488189 
Q 255.11811 334.488189 255.11811 330.944882 
L 255.11811 281.338583 
Q 255.11811 277.795276 251.574803 277.795276 
L 145.275591 277.795276 
Q 141.732283 277.795276 141.732283 281.338583 
L 141.732283 330.944882 
Q 141.732283 334.488189 145.275591 334.488189 
z
" clip-path="url(#pb904b3d28c)" style="fill: #edf3f8; stroke: #315d83; stroke-width: 0.85; stroke-linejoin: miter"/>
   </g>
   <g id="patch_22">
    <path d="M 275.669291 334.488189 
L 376.299213 334.488189 
Q 379.84252 334.488189 379.84252 330.944882 
L 379.84252 281.338583 
Q 379.84252 277.795276 376.299213 277.795276 
L 275.669291 277.795276 
Q 272.125984 277.795276 272.125984 281.338583 
L 272.125984 330.944882 
Q 272.125984 334.488189 275.669291 334.488189 
z
" clip-path="url(#pb904b3d28c)" style="fill: #edf3f8; stroke: #315d83; stroke-width: 0.85; stroke-linejoin: miter"/>
   </g>
   <g id="patch_23">
    <path d="M 400.393701 334.488189 
L 501.023622 334.488189 
Q 504.566929 334.488189 504.566929 330.944882 
L 504.566929 281.338583 
Q 504.566929 277.795276 501.023622 277.795276 
L 400.393701 277.795276 
Q 396.850394 277.795276 396.850394 281.338583 
L 396.850394 330.944882 
Q 396.850394 334.488189 400.393701 334.488189 
z
" clip-path="url(#pb904b3d28c)" style="fill: #edf3f8; stroke: #315d83; stroke-width: 0.85; stroke-linejoin: miter"/>
   </g>
   <g id="patch_24">
    <path d="M 17.716535 399.685039 
L 245.905512 399.685039 
Q 249.448819 399.685039 249.448819 396.141732 
L 249.448819 357.874016 
Q 249.448819 354.330709 245.905512 354.330709 
L 17.716535 354.330709 
Q 14.173228 354.330709 14.173228 357.874016 
L 14.173228 396.141732 
Q 14.173228 399.685039 17.716535 399.685039 
z
" clip-path="url(#pb904b3d28c)" style="fill: #f2f4f5; stroke: #697984; stroke-width: 0.85; stroke-linejoin: miter"/>
   </g>
   <g id="patch_25">
    <path d="M 275.669291 399.685039 
L 501.023622 399.685039 
Q 504.566929 399.685039 504.566929 396.141732 
L 504.566929 357.874016 
Q 504.566929 354.330709 501.023622 354.330709 
L 275.669291 354.330709 
Q 272.125984 354.330709 272.125984 357.874016 
L 272.125984 396.141732 
Q 272.125984 399.685039 275.669291 399.685039 
z
" clip-path="url(#pb904b3d28c)" style="fill: #f2f4f5; stroke: #697984; stroke-width: 0.85; stroke-linejoin: miter"/>
   </g>
   <g id="text_1">
    <text style="font-weight: 700; font-size: 10px; font-family: 'Arial', 'Helvetica', 'DejaVu Sans', sans-serif; text-anchor: start; fill: #315d83" x="14.173228" y="16.193799" transform="rotate(-0 14.173228 16.193799)">a  Agent decision–tool–feedback loop</text>
   </g>
   <g id="text_2">
    <text style="font-weight: 700; font-size: 9.1px; font-family: 'Arial', 'Helvetica', 'DejaVu Sans', sans-serif; text-anchor: middle; fill: #315d83" x="259.370079" y="50.543601" transform="rotate(-0 259.370079 50.543601)">Observation summaries  +  legal, unranked kernel–mean catalogue</text>
   </g>
   <g id="text_3">
    <text style="font-size: 9px; font-family: 'Arial', 'Helvetica', 'DejaVu Sans', sans-serif; text-anchor: middle; fill: #243747" x="259.370079" y="87.084656" transform="rotate(-0 259.370079 87.084656)">20 scored candidates: structured 4 × 5  |  competing-structure 5 × 4</text>
   </g>
   <g id="text_4">
    <text style="font-weight: 700; font-size: 9px; font-family: 'Arial', 'Helvetica', 'DejaVu Sans', sans-serif; text-anchor: middle; fill: #a46834" x="69.448819" y="113.592811" transform="rotate(-0 69.448819 113.592811)">LLM: propose</text>
   </g>
   <g id="text_5">
    <text style="font-size: 9px; font-family: 'Arial', 'Helvetica', 'DejaVu Sans', sans-serif; fill: #243747" transform="translate(31.68046 135.016462)">Kernel–mean pairs</text>
    <text style="font-size: 9px; font-family: 'Arial', 'Helvetica', 'DejaVu Sans', sans-serif; fill: #243747" transform="translate(45.813975 144.342389)">+2 reserves</text>
    <text style="font-size: 9px; font-family: 'Arial', 'Helvetica', 'DejaVu Sans', sans-serif; fill: #243747" transform="translate(40.18335 153.668315)">Short rationale</text>
   </g>
   <g id="text_6">
    <text style="font-weight: 700; font-size: 9px; font-family: 'Arial', 'Helvetica', 'DejaVu Sans', sans-serif; text-anchor: middle; fill: #315d83" x="189.92126" y="113.592811" transform="rotate(-0 189.92126 113.592811)">Validate + dedup</text>
   </g>
   <g id="text_7">
    <text style="font-size: 9px; font-family: 'Arial', 'Helvetica', 'DejaVu Sans', sans-serif; fill: #243747" transform="translate(149.654697 139.611061)">First b valid, unseen</text>
    <text style="font-size: 9px; font-family: 'Arial', 'Helvetica', 'DejaVu Sans', sans-serif; fill: #243747" transform="translate(159.649619 148.968248)">Budget cap: 20</text>
   </g>
   <g id="text_8">
    <text style="font-weight: 700; font-size: 9px; font-family: 'Arial', 'Helvetica', 'DejaVu Sans', sans-serif; text-anchor: middle; fill: #315d83" x="323.149606" y="113.592811" transform="rotate(-0 323.149606 113.592811)">Numerical scorer</text>
   </g>
   <g id="text_9">
    <text style="font-size: 9px; font-family: 'Arial', 'Helvetica', 'DejaVu Sans', sans-serif; fill: #243747" transform="translate(272.215934 139.734269)">Fit GP parameters → AIC</text>
    <text style="font-size: 9px; font-family: 'Arial', 'Helvetica', 'DejaVu Sans', sans-serif; fill: #243747" transform="translate(268.8782 149.060196)">Benchmark: cached scores</text>
   </g>
   <g id="text_10">
    <text style="font-weight: 700; font-size: 9px; font-family: 'Arial', 'Helvetica', 'DejaVu Sans', sans-serif; text-anchor: middle; fill: #a46834" x="452.125984" y="113.533749" transform="rotate(-0 452.125984 113.533749)">Update history</text>
   </g>
   <g id="text_11">
    <text style="font-size: 9px; font-family: 'Arial', 'Helvetica', 'DejaVu Sans', sans-serif; fill: #243747" transform="translate(410.850437 134.963728)">AIC, Δ to visited best</text>
    <text style="font-size: 9px; font-family: 'Arial', 'Helvetica', 'DejaVu Sans', sans-serif; fill: #243747" transform="translate(427.991922 144.289654)">k + fit status</text>
    <text style="font-size: 9px; font-family: 'Arial', 'Helvetica', 'DejaVu Sans', sans-serif; fill: #243747" transform="translate(407.855828 153.615581)">Best-visited neighbors</text>
   </g>
   <g id="text_12">
    <text style="font-size: 9px; font-family: 'Arial', 'Helvetica', 'DejaVu Sans', sans-serif; text-anchor: middle; fill: #a46834" x="252.283465" y="177.226388" transform="rotate(-0 252.283465 177.226388)">History + neighborhoods → next proposal batch if budget remains</text>
   </g>
   <g id="text_13">
    <text style="font-size: 9px; font-family: 'Arial', 'Helvetica', 'DejaVu Sans', sans-serif; text-anchor: middle; fill: #a46834" x="413.858268" y="202.399891" transform="rotate(-0 413.858268 202.399891)">At budget end</text>
   </g>
   <g id="text_14">
    <text style="font-weight: 700; font-size: 9px; font-family: 'Arial', 'Helvetica', 'DejaVu Sans', sans-serif; text-anchor: middle; fill: #a46834" x="259.370079" y="229.104622" transform="rotate(-0 259.370079 229.104622)">Select the successful visited candidate with the lowest AIC</text>
   </g>
   <g id="text_15">
    <text style="font-weight: 700; font-size: 10px; font-family: 'Arial', 'Helvetica', 'DejaVu Sans', sans-serif; text-anchor: start; fill: #315d83" x="14.173228" y="258.272539" transform="rotate(-0 14.173228 258.272539)">b  Covariance-preserving conditional simulation</text>
   </g>
   <g id="text_16">
    <text style="font-weight: 700; font-size: 9px; font-family: 'Arial', 'Helvetica', 'DejaVu Sans', sans-serif; text-anchor: middle; fill: #315d83" x="69.448819" y="292.230332" transform="rotate(-0 69.448819 292.230332)">Compile covariance</text>
   </g>
   <g id="text_17">
    <text style="font-size: 9px; font-family: 'Arial', 'Helvetica', 'DejaVu Sans', sans-serif; text-anchor: middle; fill: #243747" x="69.448819" y="320.145264" transform="rotate(-0 69.448819 320.145264)">Separable components</text>
   </g>
   <g id="text_18">
    <text style="font-weight: 700; font-size: 9px; font-family: 'Arial', 'Helvetica', 'DejaVu Sans', sans-serif; text-anchor: middle; fill: #315d83" x="198.425197" y="292.175488" transform="rotate(-0 198.425197 292.175488)">Independent priors</text>
   </g>
   <g id="text_19">
    <text style="font-size: 9px; font-family: 'Arial', 'Helvetica', 'DejaVu Sans', sans-serif; fill: #243747" transform="translate(164.152775 315.36329)">Coordinate union</text>
    <text style="font-size: 9px; font-family: 'Arial', 'Helvetica', 'DejaVu Sans', sans-serif; fill: #243747" transform="translate(163.409572 324.817551)">Sum components</text>
   </g>
   <g id="text_20">
    <text style="font-weight: 700; font-size: 9px; font-family: 'Arial', 'Helvetica', 'DejaVu Sans', sans-serif; text-anchor: middle; fill: #315d83" x="325.984252" y="292.175488" transform="rotate(-0 325.984252 292.175488)">Joint Matheron</text>
   </g>
   <g id="text_21">
    <text style="font-size: 9px; font-family: 'Arial', 'Helvetica', 'DejaVu Sans', sans-serif; fill: #243747" transform="translate(279.464799 315.482301)">Condition the prior sum</text>
    <text style="font-size: 9px; font-family: 'Arial', 'Helvetica', 'DejaVu Sans', sans-serif; fill: #243747" transform="translate(286.339252 324.808227)">Fitted mean + noise</text>
   </g>
   <g id="text_22">
    <text style="font-weight: 700; font-size: 9px; font-family: 'Arial', 'Helvetica', 'DejaVu Sans', sans-serif; text-anchor: middle; fill: #315d83" x="450.708661" y="292.175488" transform="rotate(-0 450.708661 292.175488)">Conditional fields</text>
   </g>
   <g id="text_23">
    <text style="font-size: 9px; font-family: 'Arial', 'Helvetica', 'DejaVu Sans', sans-serif; fill: #243747" transform="translate(417.773583 315.427457)">Weak-zone area</text>
    <text style="font-size: 9px; font-family: 'Arial', 'Helvetica', 'DejaVu Sans', sans-serif; fill: #243747" transform="translate(422.563271 324.753383)">+ exceedance</text>
   </g>
   <g id="text_24">
    <text style="font-weight: 700; font-size: 9px; font-family: 'Arial', 'Helvetica', 'DejaVu Sans', sans-serif; text-anchor: middle; fill: #697984" x="131.811024" y="368.710922" transform="rotate(-0 131.811024 368.710922)">Full-data references</text>
   </g>
   <g id="text_25">
    <text style="font-size: 9px; font-family: 'Arial', 'Helvetica', 'DejaVu Sans', sans-serif; text-anchor: middle; fill: #243747" x="131.811024" y="391.014218" transform="rotate(-0 131.811024 391.014218)">SE · RQ · composite</text>
   </g>
   <g id="text_26">
    <text style="font-weight: 700; font-size: 9px; font-family: 'Arial', 'Helvetica', 'DejaVu Sans', sans-serif; text-anchor: middle; fill: #697984" x="388.346457" y="368.710922" transform="rotate(-0 388.346457 368.710922)">Whole-borehole prediction</text>
   </g>
   <g id="text_27">
    <text style="font-size: 9px; font-family: 'Arial', 'Helvetica', 'DejaVu Sans', sans-serif; text-anchor: middle; fill: #243747" x="388.346457" y="390.958671" transform="rotate(-0 388.346457 390.958671)">Fix structures; refit each training fold</text>
   </g>
  </g>
 </g>
 <defs>
  <clipPath id="pb904b3d28c">
   <rect x="0" y="0" width="518.740157" height="411.023622"/>
  </clipPath>
 </defs>
</svg>
